# xmcd CD database file
#
# Track frame offsets:
#	150
#	12860
#	27161
#	46395
#	66099
#	78060
#	91405
#	108633
#	119513
#	138915
#	170925
#	182783
#	199778
#	208744
#	229251
#	243804
#	261281
#	276600
#	299500
#
# Disc length: 4332 seconds
#
# Revision: 0
# Processed by: cddbd v1.5.1PL0 Copyright (c) Steve Scherf et al.
# Submitted via: CDex 1.51
#
DISCID=1f10ea13
DTITLE=Various Artist - Songs Your Friends Won't Like - Volume 1
DYEAR=2004
DGENRE=Country
TTITLE0=The Extra Glenns - Going to Marrekesh
TTITLE1=Old '97s - Time Bomb
TTITLE2=Slobberbone - Whiskey Glass Eye
TTITLE3=Blue Mountain - Generic America
TTITLE4=Bottle Rockets - Take Me to the Bank
TTITLE5=Buddy Blue - Gun Sale at the Church
TTITLE6=Gram Parsons - Six Days on the Road
TTITLE7=George Jones - Relief Is Just a Swallow Away
TTITLE8=Grateful Dead - Pride of Cucamonga
TTITLE9=Joe Ely - Gallo Del Cielo
TTITLE10=Jonathan Richman - Since She Started to Ride
TTITLE11=Michael Hall - (I wish I Never Heard) The Rolling Stones
TTITLE12=Red Planet - Drunk Girl
TTITLE13=The Minus Five - Dear Employer
TTITLE14=Golden Smog - V
TTITLE15=Old '97s - Victoria Lee
TTITLE16=The Pernice Brothers - Working Girls
TTITLE17=The Pernice Brothers - Grudge Fuck
TTITLE18=The Pernice Brothers - Number Two
EXTD=YEAR: 2004
EXTT0=
EXTT1=
EXTT2=
EXTT3=
EXTT4=
EXTT5=
EXTT6=
EXTT7=
EXTT8=
EXTT9=
EXTT10=
EXTT11=
EXTT12=
EXTT13=
EXTT14=
EXTT15=
EXTT16=
EXTT17=
EXTT18=
PLAYORDER=
